<?xml version="1.0" encoding="UTF-8"?>
<svg id="Layer_1" xmlns="http://www.w3.org/2000/svg" 
viewBox="0 0 264.03 519.04">
<g style="mix-blend-mode:difference">
<path d="M192.46,454.91v-45.9h-.04v-.05h.09v-48.29H63.14c0-20.12,4.33-29.36,33.12-30.91l70.88-3.71c80.17-4.33,96.53-15.48,96.53-81.4l-.13-78.59c0-35.23-5.82-46.57-41.67-52.7v-.92c30.33-9.19,41.4-13.79,41.4-51.17C263.28,12.25,239.95,0,160.9,0h-45.65C31.91,0,.49,6.43,.49,66.18v12.26H64.83v-9.5c0-16.54,9.06-21.14,31.12-21.14h67.4c20.22,0,35.58,4.29,35.58,21.45,0,15.93-8.62,21.45-30.68,21.45h-63.42v45.96h69.85c20.83,0,24.51,6.74,24.51,21.45,0,13.53-2,19.59-17.85,20.66-1.74,.12-3.64,.18-5.74,.18H94.42c-2.64,0-5.04-.07-7.25-.2-40.54,.08-65.55,6.62-77.86,23.76C2.98,211.29,0,222.88,0,237.84v17.87H65v-1.15c0-23.21,8.98-27.55,38.07-27.55h45.5c43.95,0,50.46,4.02,50.46,22.29,0,21.98-8.05,22.9-58.19,26l-78.62,4.95c-44.26,3.1-62.21,21.36-62.21,48.91v79.81H135.46v45.9c0,7.18-5.82,13-13,13H0v51.12H147.83v.05h116.2v-51.12h-58.56c-7.18,0-13-5.82-13-13Z"/>
</g>
</svg>