<svg width="1379" height="93" viewBox="0 0 1379 93" fill="none" xmlns="http://www.w3.org/2000/svg">
<path d="M0 21.21V37.88V93.36H27.94V35.81V21.21V0H0V21.21Z" fill="black"/>
<path d="M43.9399 21.21V37.88V93.36H71.8799V35.81V21.21V0H43.9399V21.21Z" fill="black"/>
<path d="M87.88 21.21V37.88V93.36H115.82V35.81V21.21V0H87.88V21.21Z" fill="black"/>
<path d="M512.12 0.0700002H409.7C408.95 0.0400002 408.22 0 407.43 0H351.05H323.11V35.81H264.21V0H245.49H236.27H131.82V21.21H171.08V93.36H199.02V21.21H236.28V93.36H264.22V56.94H323.12V93.36H351.06V56.94H394.98C403.66 56.94 406.43 60.09 406.43 69.65V93.36H407.87V93.43H522.02V93.36H615.79V71.46H540.06V56.86H615.79V35.74H540.06V21.14H615.79V0H512.12V0.0700002ZM407.52 29.5C407.52 33.81 404.75 35.8 397.2 35.8H351.01V21.2H394.68C403.49 21.2 407.52 22.2 407.52 27.51V29.5ZM512.12 71.53H435.81V56.93H512.13V71.53H512.12ZM512.12 35.81H435.81V21.21H512.13V35.81H512.12Z" fill="black"/>
<path d="M631.79 21.21V37.88V93.36H659.73V35.81V21.21V0H631.79V21.21Z" fill="black"/>
<path d="M675.73 21.21V37.88V93.36H703.67V35.81V21.21V0H675.73V21.21Z" fill="black"/>
<path d="M1002.36 0H967.17H954.81C945.96 0 938.17 5.85 935.71 14.36L921.23 69.2L902.07 0H876.15L857 69.2L838.37 0H826.15H811.05H719.67V21.21H758.93V93.36H786.87V21.21H818.4L840.62 93.36H872.71L889.11 38.4L905.51 93.36H935.79H937.6H1002.37C1027.54 93.36 1042.51 87.07 1042.51 60.39V32.97C1042.51 6.29 1027.53 0 1002.36 0ZM1017.03 52.97C1017.03 66.86 1014.42 72.15 1001.95 72.15H979.06H979.05H961.19C948.72 72.15 948.29 67.18 951.06 52.97L954.57 40.35C957.78 28.44 961.86 21.22 975.76 21.22H980.48C980.48 21.22 980.48 21.22 980.49 21.22H1000.53C1014.42 21.22 1017.03 28.49 1017.03 40.4V52.97Z" fill="black"/>
<path d="M1058.51 21.21V37.88V93.36H1086.45V35.81V21.21V0H1058.51V21.21Z" fill="black"/>
<path d="M1379.31 21.14V0H1306.36H1278.42V67.45H1278.17L1231.69 0H1187.4H1142.6C1117.43 0 1102.45 6.16 1102.45 32.26V61.1C1102.45 87.2 1117.43 93.36 1142.6 93.36H1190.62H1192.01C1206.67 93.36 1218.55 81.48 1218.55 66.82V24.91H1218.8L1266.28 93.36H1306.35H1379.3V71.46H1306.35V56.86L1379.3 56.9V35.77L1306.35 35.73V21.13H1379.31V21.14ZM1194.16 52.97C1194.16 66.87 1191.54 72.16 1179.03 72.16H1141.65C1129.14 72.16 1126.51 66.86 1126.51 52.97V40.4C1126.51 28.49 1129.13 21.21 1143.08 21.21H1177.6C1191.54 21.21 1194.17 28.49 1194.17 40.4V52.97H1194.16Z" fill="black"/>
</svg>
