<svg width="35" height="73" viewBox="0 0 35 73" fill="none" xmlns="http://www.w3.org/2000/svg">
<g style="mix-blend-mode:difference">
<path d="M25.5126 63.9805V57.5249H25.5073V57.5179H25.5193V50.7262H8.36988C8.36988 47.8964 8.94387 46.5969 12.7603 46.3789L22.1562 45.8571C32.7836 45.2481 34.9987 43.6799 34.9987 34.4086L34.9337 23.3554C34.9337 18.4005 34.1622 16.8056 29.4099 15.9434V15.814C33.4305 14.5215 34.8979 13.8746 34.8979 8.61727C34.9006 1.72289 31.8079 0 21.329 0H15.2776C4.23001 0 0.0649547 0.904343 0.0649547 9.30784V11.0321H8.59391V9.69602C8.59391 7.36976 9.79491 6.7228 12.7192 6.7228H21.6538C24.3342 6.7228 26.3703 7.32616 26.3703 9.73962C26.3703 11.9801 25.2276 12.7564 22.3033 12.7564H13.8963V19.2204H23.1557C25.9169 19.2204 26.4048 20.1684 26.4048 22.2373C26.4048 24.1402 26.1396 24.9925 24.0386 25.143C23.8079 25.1599 23.556 25.1683 23.2777 25.1683H12.5164C12.1664 25.1683 11.8483 25.1584 11.5553 25.1402C6.1813 25.1514 2.86596 26.0712 1.23414 28.4819C0.395031 29.7167 0 31.3468 0 33.4508V35.9641H8.61644V35.8024C8.61644 32.5381 9.80684 31.9277 13.663 31.9277H19.6945C25.5206 31.9277 26.3836 32.493 26.3836 35.0626C26.3836 38.154 25.3164 38.2834 18.6698 38.7194L8.24793 39.4156C2.38079 39.8516 0.00132561 42.4197 0.00132561 46.2945V57.5193H17.9567V63.9749C17.9567 64.9847 17.1852 65.8032 16.2334 65.8032H0V72.993H19.5964V73H35V65.8103H27.2372C26.2855 65.8103 25.514 64.9917 25.514 63.9819L25.5126 63.9805Z" fill="black"/>
</g>
</svg>
