<?xml version="1.0" encoding="utf-8"?>
<!-- Generator: Adobe Illustrator 26.3.1, SVG Export Plug-In . SVG Version: 6.00 Build 0)  -->
<svg version="1.1" id="Layer_1" xmlns="http://www.w3.org/2000/svg" xmlns:xlink="http://www.w3.org/1999/xlink" x="0px" y="0px"
	 viewBox="0 0 1387.96 100.07" style="enable-background:new 0 0 1387.96 100.07;" xml:space="preserve">
<path d="M516.71,3.39H414.29c-0.75-0.03-1.48-0.07-2.27-0.07h-56.38h-27.94v35.81h-58.9V3.32h-18.72h-9.22H136.41v21.21h39.26v72.15
	h27.94V24.53h37.26v72.15h27.94V60.26h58.9v36.42h27.94V60.26h43.92c8.68,0,11.45,3.15,11.45,12.71v23.71h1.44v0.07h114.15v-0.07
	h93.77v-21.9h-75.73v-14.6h75.73V39.06h-75.73v-14.6h75.73V3.32H516.71V3.39z M412.11,32.82c0,4.31-2.77,6.3-10.32,6.3H355.6v-14.6
	h43.67c8.81,0,12.84,1,12.84,6.31V32.82z M516.71,74.85H440.4v-14.6h76.32V74.85z M516.71,39.13H440.4v-14.6h76.32V39.13z"/>
<polygon points="92.12,24.54 92.12,41.21 92.12,96.69 120.06,96.69 120.06,39.14 120.06,24.54 120.06,3.33 92.12,3.33 "/>
<polygon points="636.73,24.54 636.73,41.21 636.73,96.69 664.67,96.69 664.67,39.14 664.67,24.54 664.67,3.33 636.73,3.33 "/>
<polygon points="681.03,24.54 681.03,41.21 681.03,96.69 708.97,96.69 708.97,39.14 708.97,24.54 708.97,3.33 681.03,3.33 "/>
<polygon points="1064.51,24.54 1064.51,41.21 1064.51,96.69 1092.45,96.69 1092.45,39.14 1092.45,24.54 1092.45,3.33 1064.51,3.33 
	"/>
<polygon points="47.82,24.54 47.82,41.21 47.82,96.69 75.76,96.69 75.76,39.14 75.76,24.54 75.76,3.33 47.82,3.33 "/>
<polygon points="3.53,24.54 3.53,41.21 3.53,96.69 31.47,96.69 31.47,39.14 31.47,24.54 31.47,3.33 3.53,3.33 "/>
<path d="M1385.66,24.46V3.32h-72.95h-27.94v67.45h-0.25l-46.48-67.45h-44.29h-44.8c-25.17,0-40.15,6.16-40.15,32.26v28.84
	c0,26.1,14.98,32.26,40.15,32.26h48.02h1.39c14.66,0,26.54-11.88,26.54-26.54V28.23h0.25l47.48,68.45h40.07h72.95v-21.9h-72.95
	v-14.6l72.95,0.04V39.09l-72.95-0.04v-14.6H1385.66z M1200.51,56.29c0,13.9-2.62,19.19-15.13,19.19h-37.38
	c-12.51,0-15.14-5.3-15.14-19.19V43.72c0-11.91,2.62-19.19,16.57-19.19h34.52c13.94,0,16.57,7.28,16.57,19.19V56.29z"/>
<path d="M1008.01,3.35h-35.19h-12.36c-8.85,0-16.64,5.85-19.1,14.36l-14.48,54.84l-19.16-69.2H881.8l-19.15,69.2l-18.63-69.2h-12.22
	H816.7h-91.38v21.21h39.26v72.15h27.94V24.56h31.53l22.22,72.15h32.09l16.4-54.96l16.4,54.96h30.28h1.81h64.77
	c25.17,0,40.14-6.29,40.14-32.97V36.32C1048.16,9.64,1033.18,3.35,1008.01,3.35z M1022.68,56.32c0,13.89-2.61,19.18-15.08,19.18
	h-22.89c0,0-0.01,0-0.01,0h-17.86c-12.47,0-12.9-4.97-10.13-19.18l3.51-12.62c3.21-11.91,7.29-19.13,21.19-19.13h4.72
	c0,0,0,0,0.01,0h20.04c13.89,0,16.5,7.27,16.5,19.18V56.32z"/>
</svg>
