<svg width="14240" height="101" viewBox="0 0 14240 101" fill="none" xmlns="http://www.w3.org/2000/svg">
<path d="M516.71 3.39001H414.29C413.54 3.36001 412.81 3.32001 412.02 3.32001H355.64H327.7V39.13H268.8V3.32001H250.08H240.86H136.41V24.53H175.67V96.68H203.61V24.53H240.87V96.68H268.81V60.26H327.71V96.68H355.65V60.26H399.57C408.25 60.26 411.02 63.41 411.02 72.97V96.68H412.46V96.75H526.61V96.68H620.38V74.78H544.65V60.18H620.38V39.06H544.65V24.46H620.38V3.32001H516.71V3.39001ZM412.11 32.82C412.11 37.13 409.34 39.12 401.79 39.12H355.6V24.52H399.27C408.08 24.52 412.11 25.52 412.11 30.83V32.82ZM516.71 74.85H440.4V60.25H516.72V74.85H516.71ZM516.71 39.13H440.4V24.53H516.72V39.13H516.71Z" fill="black"/>
<path d="M92.12 24.54V41.21V96.69H120.06V39.14V24.54V3.33H92.12V24.54Z" fill="black"/>
<path d="M636.73 24.54V41.21V96.69H664.67V39.14V24.54V3.33H636.73V24.54Z" fill="black"/>
<path d="M681.03 24.54V41.21V96.69H708.97V39.14V24.54V3.33H681.03V24.54Z" fill="black"/>
<path d="M1064.51 24.54V41.21V96.69H1092.45V39.14V24.54V3.33H1064.51V24.54Z" fill="black"/>
<path d="M47.82 24.54V41.21V96.69H75.76V39.14V24.54V3.33H47.82V24.54Z" fill="black"/>
<path d="M3.53003 24.54V41.21V96.69H31.47V39.14V24.54V3.33H3.53003V24.54Z" fill="black"/>
<path d="M1385.66 24.46V3.32001H1312.71H1284.77V70.77H1284.52L1238.04 3.32001H1193.75H1148.95C1123.78 3.32001 1108.8 9.48001 1108.8 35.58V64.42C1108.8 90.52 1123.78 96.68 1148.95 96.68H1196.97H1198.36C1213.02 96.68 1224.9 84.8 1224.9 70.14V28.23H1225.15L1272.63 96.68H1312.7H1385.65V74.78H1312.7V60.18L1385.65 60.22V39.09L1312.7 39.05V24.45H1385.66V24.46ZM1200.51 56.29C1200.51 70.19 1197.89 75.48 1185.38 75.48H1148C1135.49 75.48 1132.86 70.18 1132.86 56.29V43.72C1132.86 31.81 1135.48 24.53 1149.43 24.53H1183.95C1197.89 24.53 1200.52 31.81 1200.52 43.72V56.29H1200.51Z" fill="black"/>
<path d="M1008.01 3.35001H972.82H960.46C951.61 3.35001 943.82 9.2 941.36 17.71L926.88 72.55L907.72 3.35001H881.8L862.65 72.55L844.02 3.35001H831.8H816.7H725.32V24.56H764.58V96.71H792.52V24.56H824.05L846.27 96.71H878.36L894.76 41.75L911.16 96.71H941.44H943.25H1008.02C1033.19 96.71 1048.16 90.42 1048.16 63.74V36.32C1048.16 9.64001 1033.18 3.35001 1008.01 3.35001ZM1022.68 56.32C1022.68 70.21 1020.07 75.5 1007.6 75.5H984.71H984.7H966.84C954.37 75.5 953.94 70.53 956.71 56.32L960.22 43.7C963.43 31.79 967.51 24.57 981.41 24.57H986.13C986.13 24.57 986.13 24.57 986.14 24.57H1006.18C1020.07 24.57 1022.68 31.84 1022.68 43.75V56.32Z" fill="black"/>
<path d="M1944.71 3.39001H1842.29C1841.54 3.36001 1840.81 3.32001 1840.02 3.32001H1783.64H1755.7V39.13H1696.8V3.32001H1678.08H1668.86H1564.41V24.53H1603.67V96.68H1631.61V24.53H1668.87V96.68H1696.81V60.26H1755.71V96.68H1783.65V60.26H1827.57C1836.25 60.26 1839.02 63.41 1839.02 72.97V96.68H1840.46V96.75H1954.61V96.68H2048.38V74.78H1972.65V60.18H2048.38V39.06H1972.65V24.46H2048.38V3.32001H1944.71V3.39001ZM1840.11 32.82C1840.11 37.13 1837.34 39.12 1829.79 39.12H1783.6V24.52H1827.27C1836.08 24.52 1840.11 25.52 1840.11 30.83V32.82ZM1944.71 74.85H1868.4V60.25H1944.72V74.85H1944.71ZM1944.71 39.13H1868.4V24.53H1944.72V39.13H1944.71Z" fill="black"/>
<path d="M1520.12 24.54V41.21V96.69H1548.06V39.14V24.54V3.33H1520.12V24.54Z" fill="black"/>
<path d="M2064.73 24.54V41.21V96.69H2092.67V39.14V24.54V3.33H2064.73V24.54Z" fill="black"/>
<path d="M2109.03 24.54V41.21V96.69H2136.97V39.14V24.54V3.33H2109.03V24.54Z" fill="black"/>
<path d="M2492.51 24.54V41.21V96.69H2520.45V39.14V24.54V3.33H2492.51V24.54Z" fill="black"/>
<path d="M1475.82 24.54V41.21V96.69H1503.76V39.14V24.54V3.33H1475.82V24.54Z" fill="black"/>
<path d="M1431.53 24.54V41.21V96.69H1459.47V39.14V24.54V3.33H1431.53V24.54Z" fill="black"/>
<path d="M2813.66 24.46V3.32001H2740.71H2712.77V70.77H2712.52L2666.04 3.32001H2621.75H2576.95C2551.78 3.32001 2536.8 9.48001 2536.8 35.58V64.42C2536.8 90.52 2551.78 96.68 2576.95 96.68H2624.97H2626.36C2641.02 96.68 2652.9 84.8 2652.9 70.14V28.23H2653.15L2700.63 96.68H2740.7H2813.65V74.78H2740.7V60.18L2813.65 60.22V39.09L2740.7 39.05V24.45H2813.66V24.46ZM2628.51 56.29C2628.51 70.19 2625.89 75.48 2613.38 75.48H2576C2563.49 75.48 2560.86 70.18 2560.86 56.29V43.72C2560.86 31.81 2563.48 24.53 2577.43 24.53H2611.95C2625.89 24.53 2628.52 31.81 2628.52 43.72V56.29H2628.51Z" fill="black"/>
<path d="M2436.01 3.35001H2400.82H2388.46C2379.61 3.35001 2371.82 9.2 2369.36 17.71L2354.88 72.55L2335.72 3.35001H2309.8L2290.65 72.55L2272.02 3.35001H2259.8H2244.7H2153.32V24.56H2192.58V96.71H2220.52V24.56H2252.05L2274.27 96.71H2306.36L2322.76 41.75L2339.16 96.71H2369.44H2371.25H2436.02C2461.19 96.71 2476.16 90.42 2476.16 63.74V36.32C2476.16 9.64001 2461.18 3.35001 2436.01 3.35001ZM2450.68 56.32C2450.68 70.21 2448.07 75.5 2435.6 75.5H2412.71H2412.7H2394.84C2382.37 75.5 2381.94 70.53 2384.71 56.32L2388.22 43.7C2391.43 31.79 2395.51 24.57 2409.41 24.57H2414.13C2414.13 24.57 2414.13 24.57 2414.14 24.57H2434.18C2448.07 24.57 2450.68 31.84 2450.68 43.75V56.32Z" fill="black"/>
<path d="M3372.71 3.39001H3270.29C3269.54 3.36001 3268.81 3.32001 3268.02 3.32001H3211.64H3183.7V39.13H3124.8V3.32001H3106.08H3096.86H2992.41V24.53H3031.67V96.68H3059.61V24.53H3096.87V96.68H3124.81V60.26H3183.71V96.68H3211.65V60.26H3255.57C3264.25 60.26 3267.02 63.41 3267.02 72.97V96.68H3268.46V96.75H3382.61V96.68H3476.38V74.78H3400.65V60.18H3476.38V39.06H3400.65V24.46H3476.38V3.32001H3372.71V3.39001ZM3268.11 32.82C3268.11 37.13 3265.34 39.12 3257.79 39.12H3211.6V24.52H3255.27C3264.08 24.52 3268.11 25.52 3268.11 30.83V32.82ZM3372.71 74.85H3296.4V60.25H3372.72V74.85H3372.71ZM3372.71 39.13H3296.4V24.53H3372.72V39.13H3372.71Z" fill="black"/>
<path d="M2948.12 24.54V41.21V96.69H2976.06V39.14V24.54V3.33H2948.12V24.54Z" fill="black"/>
<path d="M3492.73 24.54V41.21V96.69H3520.67V39.14V24.54V3.33H3492.73V24.54Z" fill="black"/>
<path d="M3537.03 24.54V41.21V96.69H3564.97V39.14V24.54V3.33H3537.03V24.54Z" fill="black"/>
<path d="M3920.51 24.54V41.21V96.69H3948.45V39.14V24.54V3.33H3920.51V24.54Z" fill="black"/>
<path d="M2903.82 24.54V41.21V96.69H2931.76V39.14V24.54V3.33H2903.82V24.54Z" fill="black"/>
<path d="M2859.53 24.54V41.21V96.69H2887.47V39.14V24.54V3.33H2859.53V24.54Z" fill="black"/>
<path d="M4241.66 24.46V3.32001H4168.71H4140.77V70.77H4140.52L4094.04 3.32001H4049.75H4004.95C3979.78 3.32001 3964.8 9.48001 3964.8 35.58V64.42C3964.8 90.52 3979.78 96.68 4004.95 96.68H4052.97H4054.36C4069.02 96.68 4080.9 84.8 4080.9 70.14V28.23H4081.15L4128.63 96.68H4168.7H4241.65V74.78H4168.7V60.18L4241.65 60.22V39.09L4168.7 39.05V24.45H4241.66V24.46ZM4056.51 56.29C4056.51 70.19 4053.89 75.48 4041.38 75.48H4004C3991.49 75.48 3988.86 70.18 3988.86 56.29V43.72C3988.86 31.81 3991.48 24.53 4005.43 24.53H4039.95C4053.89 24.53 4056.52 31.81 4056.52 43.72V56.29H4056.51Z" fill="black"/>
<path d="M3864.01 3.35001H3828.82H3816.46C3807.61 3.35001 3799.82 9.2 3797.36 17.71L3782.88 72.55L3763.72 3.35001H3737.8L3718.65 72.55L3700.02 3.35001H3687.8H3672.7H3581.32V24.56H3620.58V96.71H3648.52V24.56H3680.05L3702.27 96.71H3734.36L3750.76 41.75L3767.16 96.71H3797.44H3799.25H3864.02C3889.19 96.71 3904.16 90.42 3904.16 63.74V36.32C3904.16 9.64001 3889.18 3.35001 3864.01 3.35001ZM3878.68 56.32C3878.68 70.21 3876.07 75.5 3863.6 75.5H3840.71H3840.7H3822.84C3810.37 75.5 3809.94 70.53 3812.71 56.32L3816.22 43.7C3819.43 31.79 3823.51 24.57 3837.41 24.57H3842.13C3842.13 24.57 3842.13 24.57 3842.14 24.57H3862.18C3876.07 24.57 3878.68 31.84 3878.68 43.75V56.32Z" fill="black"/>
<path d="M4800.71 3.39001H4698.29C4697.54 3.36001 4696.81 3.32001 4696.02 3.32001H4639.64H4611.7V39.13H4552.8V3.32001H4534.08H4524.86H4420.41V24.53H4459.67V96.68H4487.61V24.53H4524.87V96.68H4552.81V60.26H4611.71V96.68H4639.65V60.26H4683.57C4692.25 60.26 4695.02 63.41 4695.02 72.97V96.68H4696.46V96.75H4810.61V96.68H4904.38V74.78H4828.65V60.18H4904.38V39.06H4828.65V24.46H4904.38V3.32001H4800.71V3.39001ZM4696.11 32.82C4696.11 37.13 4693.34 39.12 4685.79 39.12H4639.6V24.52H4683.27C4692.08 24.52 4696.11 25.52 4696.11 30.83V32.82ZM4800.71 74.85H4724.4V60.25H4800.72V74.85H4800.71ZM4800.71 39.13H4724.4V24.53H4800.72V39.13H4800.71Z" fill="black"/>
<path d="M4376.12 24.54V41.21V96.69H4404.06V39.14V24.54V3.33H4376.12V24.54Z" fill="black"/>
<path d="M4920.73 24.54V41.21V96.69H4948.67V39.14V24.54V3.33H4920.73V24.54Z" fill="black"/>
<path d="M4965.03 24.54V41.21V96.69H4992.97V39.14V24.54V3.33H4965.03V24.54Z" fill="black"/>
<path d="M5348.51 24.54V41.21V96.69H5376.45V39.14V24.54V3.33H5348.51V24.54Z" fill="black"/>
<path d="M4331.82 24.54V41.21V96.69H4359.76V39.14V24.54V3.33H4331.82V24.54Z" fill="black"/>
<path d="M4287.53 24.54V41.21V96.69H4315.47V39.14V24.54V3.33H4287.53V24.54Z" fill="black"/>
<path d="M5669.66 24.46V3.32001H5596.71H5568.77V70.77H5568.52L5522.04 3.32001H5477.75H5432.95C5407.78 3.32001 5392.8 9.48001 5392.8 35.58V64.42C5392.8 90.52 5407.78 96.68 5432.95 96.68H5480.97H5482.36C5497.02 96.68 5508.9 84.8 5508.9 70.14V28.23H5509.15L5556.63 96.68H5596.7H5669.65V74.78H5596.7V60.18L5669.65 60.22V39.09L5596.7 39.05V24.45H5669.66V24.46ZM5484.51 56.29C5484.51 70.19 5481.89 75.48 5469.38 75.48H5432C5419.49 75.48 5416.86 70.18 5416.86 56.29V43.72C5416.86 31.81 5419.48 24.53 5433.43 24.53H5467.95C5481.89 24.53 5484.52 31.81 5484.52 43.72V56.29H5484.51Z" fill="black"/>
<path d="M5292.01 3.35001H5256.82H5244.46C5235.61 3.35001 5227.82 9.2 5225.36 17.71L5210.88 72.55L5191.72 3.35001H5165.8L5146.65 72.55L5128.02 3.35001H5115.8H5100.7H5009.32V24.56H5048.58V96.71H5076.52V24.56H5108.05L5130.27 96.71H5162.36L5178.76 41.75L5195.16 96.71H5225.44H5227.25H5292.02C5317.19 96.71 5332.16 90.42 5332.16 63.74V36.32C5332.16 9.64001 5317.18 3.35001 5292.01 3.35001ZM5306.68 56.32C5306.68 70.21 5304.07 75.5 5291.6 75.5H5268.71H5268.7H5250.84C5238.37 75.5 5237.94 70.53 5240.71 56.32L5244.22 43.7C5247.43 31.79 5251.51 24.57 5265.41 24.57H5270.13C5270.13 24.57 5270.13 24.57 5270.14 24.57H5290.18C5304.07 24.57 5306.68 31.84 5306.68 43.75V56.32Z" fill="black"/>
<path d="M6228.71 3.39001H6126.29C6125.54 3.36001 6124.81 3.32001 6124.02 3.32001H6067.64H6039.7V39.13H5980.8V3.32001H5962.08H5952.86H5848.41V24.53H5887.67V96.68H5915.61V24.53H5952.87V96.68H5980.81V60.26H6039.71V96.68H6067.65V60.26H6111.57C6120.25 60.26 6123.02 63.41 6123.02 72.97V96.68H6124.46V96.75H6238.61V96.68H6332.38V74.78H6256.65V60.18H6332.38V39.06H6256.65V24.46H6332.38V3.32001H6228.71V3.39001ZM6124.11 32.82C6124.11 37.13 6121.34 39.12 6113.79 39.12H6067.6V24.52H6111.27C6120.08 24.52 6124.11 25.52 6124.11 30.83V32.82ZM6228.71 74.85H6152.4V60.25H6228.72V74.85H6228.71ZM6228.71 39.13H6152.4V24.53H6228.72V39.13H6228.71Z" fill="black"/>
<path d="M5804.12 24.54V41.21V96.69H5832.06V39.14V24.54V3.33H5804.12V24.54Z" fill="black"/>
<path d="M6348.73 24.54V41.21V96.69H6376.67V39.14V24.54V3.33H6348.73V24.54Z" fill="black"/>
<path d="M6393.03 24.54V41.21V96.69H6420.97V39.14V24.54V3.33H6393.03V24.54Z" fill="black"/>
<path d="M6776.51 24.54V41.21V96.69H6804.45V39.14V24.54V3.33H6776.51V24.54Z" fill="black"/>
<path d="M5759.82 24.54V41.21V96.69H5787.76V39.14V24.54V3.33H5759.82V24.54Z" fill="black"/>
<path d="M5715.53 24.54V41.21V96.69H5743.47V39.14V24.54V3.33H5715.53V24.54Z" fill="black"/>
<path d="M7097.66 24.46V3.32001H7024.71H6996.77V70.77H6996.52L6950.04 3.32001H6905.75H6860.95C6835.78 3.32001 6820.8 9.48001 6820.8 35.58V64.42C6820.8 90.52 6835.78 96.68 6860.95 96.68H6908.97H6910.36C6925.02 96.68 6936.9 84.8 6936.9 70.14V28.23H6937.15L6984.63 96.68H7024.7H7097.65V74.78H7024.7V60.18L7097.65 60.22V39.09L7024.7 39.05V24.45H7097.66V24.46ZM6912.51 56.29C6912.51 70.19 6909.89 75.48 6897.38 75.48H6860C6847.49 75.48 6844.86 70.18 6844.86 56.29V43.72C6844.86 31.81 6847.48 24.53 6861.43 24.53H6895.95C6909.89 24.53 6912.52 31.81 6912.52 43.72V56.29H6912.51Z" fill="black"/>
<path d="M6720.01 3.35001H6684.82H6672.46C6663.61 3.35001 6655.82 9.2 6653.36 17.71L6638.88 72.55L6619.72 3.35001H6593.8L6574.65 72.55L6556.02 3.35001H6543.8H6528.7H6437.32V24.56H6476.58V96.71H6504.52V24.56H6536.05L6558.27 96.71H6590.36L6606.76 41.75L6623.16 96.71H6653.44H6655.25H6720.02C6745.19 96.71 6760.16 90.42 6760.16 63.74V36.32C6760.16 9.64001 6745.18 3.35001 6720.01 3.35001ZM6734.68 56.32C6734.68 70.21 6732.07 75.5 6719.6 75.5H6696.71H6696.7H6678.84C6666.37 75.5 6665.94 70.53 6668.71 56.32L6672.22 43.7C6675.43 31.79 6679.51 24.57 6693.41 24.57H6698.13C6698.13 24.57 6698.13 24.57 6698.14 24.57H6718.18C6732.07 24.57 6734.68 31.84 6734.68 43.75V56.32Z" fill="black"/>
<path d="M7656.71 3.39001H7554.29C7553.54 3.36001 7552.81 3.32001 7552.02 3.32001H7495.64H7467.7V39.13H7408.8V3.32001H7390.08H7380.86H7276.41V24.53H7315.67V96.68H7343.61V24.53H7380.87V96.68H7408.81V60.26H7467.71V96.68H7495.65V60.26H7539.57C7548.25 60.26 7551.02 63.41 7551.02 72.97V96.68H7552.46V96.75H7666.61V96.68H7760.38V74.78H7684.65V60.18H7760.38V39.06H7684.65V24.46H7760.38V3.32001H7656.71V3.39001ZM7552.11 32.82C7552.11 37.13 7549.34 39.12 7541.79 39.12H7495.6V24.52H7539.27C7548.08 24.52 7552.11 25.52 7552.11 30.83V32.82ZM7656.71 74.85H7580.4V60.25H7656.72V74.85H7656.71ZM7656.71 39.13H7580.4V24.53H7656.72V39.13H7656.71Z" fill="black"/>
<path d="M7232.12 24.54V41.21V96.69H7260.06V39.14V24.54V3.33H7232.12V24.54Z" fill="black"/>
<path d="M7776.73 24.54V41.21V96.69H7804.67V39.14V24.54V3.33H7776.73V24.54Z" fill="black"/>
<path d="M7821.03 24.54V41.21V96.69H7848.97V39.14V24.54V3.33H7821.03V24.54Z" fill="black"/>
<path d="M8204.51 24.54V41.21V96.69H8232.45V39.14V24.54V3.33H8204.51V24.54Z" fill="black"/>
<path d="M7187.82 24.54V41.21V96.69H7215.76V39.14V24.54V3.33H7187.82V24.54Z" fill="black"/>
<path d="M7143.53 24.54V41.21V96.69H7171.47V39.14V24.54V3.33H7143.53V24.54Z" fill="black"/>
<path d="M8525.66 24.46V3.32001H8452.71H8424.77V70.77H8424.52L8378.04 3.32001H8333.75H8288.95C8263.78 3.32001 8248.8 9.48001 8248.8 35.58V64.42C8248.8 90.52 8263.78 96.68 8288.95 96.68H8336.97H8338.36C8353.02 96.68 8364.9 84.8 8364.9 70.14V28.23H8365.15L8412.63 96.68H8452.7H8525.65V74.78H8452.7V60.18L8525.65 60.22V39.09L8452.7 39.05V24.45H8525.66V24.46ZM8340.51 56.29C8340.51 70.19 8337.89 75.48 8325.38 75.48H8288C8275.49 75.48 8272.86 70.18 8272.86 56.29V43.72C8272.86 31.81 8275.48 24.53 8289.43 24.53H8323.95C8337.89 24.53 8340.52 31.81 8340.52 43.72V56.29H8340.51Z" fill="black"/>
<path d="M8148.01 3.35001H8112.82H8100.46C8091.61 3.35001 8083.82 9.2 8081.36 17.71L8066.88 72.55L8047.72 3.35001H8021.8L8002.65 72.55L7984.02 3.35001H7971.8H7956.7H7865.32V24.56H7904.58V96.71H7932.52V24.56H7964.05L7986.27 96.71H8018.36L8034.76 41.75L8051.16 96.71H8081.44H8083.25H8148.02C8173.19 96.71 8188.16 90.42 8188.16 63.74V36.32C8188.16 9.64001 8173.18 3.35001 8148.01 3.35001ZM8162.68 56.32C8162.68 70.21 8160.07 75.5 8147.6 75.5H8124.71H8124.7H8106.84C8094.37 75.5 8093.94 70.53 8096.71 56.32L8100.22 43.7C8103.43 31.79 8107.51 24.57 8121.41 24.57H8126.13C8126.13 24.57 8126.13 24.57 8126.14 24.57H8146.18C8160.07 24.57 8162.68 31.84 8162.68 43.75V56.32Z" fill="black"/>
<path d="M9084.71 3.39001H8982.29C8981.54 3.36001 8980.81 3.32001 8980.02 3.32001H8923.64H8895.7V39.13H8836.8V3.32001H8818.08H8808.86H8704.41V24.53H8743.67V96.68H8771.61V24.53H8808.87V96.68H8836.81V60.26H8895.71V96.68H8923.65V60.26H8967.57C8976.25 60.26 8979.02 63.41 8979.02 72.97V96.68H8980.46V96.75H9094.61V96.68H9188.38V74.78H9112.65V60.18H9188.38V39.06H9112.65V24.46H9188.38V3.32001H9084.71V3.39001ZM8980.11 32.82C8980.11 37.13 8977.34 39.12 8969.79 39.12H8923.6V24.52H8967.27C8976.08 24.52 8980.11 25.52 8980.11 30.83V32.82ZM9084.71 74.85H9008.4V60.25H9084.72V74.85H9084.71ZM9084.71 39.13H9008.4V24.53H9084.72V39.13H9084.71Z" fill="black"/>
<path d="M8660.12 24.54V41.21V96.69H8688.06V39.14V24.54V3.33H8660.12V24.54Z" fill="black"/>
<path d="M9204.73 24.54V41.21V96.69H9232.67V39.14V24.54V3.33H9204.73V24.54Z" fill="black"/>
<path d="M9249.03 24.54V41.21V96.69H9276.97V39.14V24.54V3.33H9249.03V24.54Z" fill="black"/>
<path d="M9632.51 24.54V41.21V96.69H9660.45V39.14V24.54V3.33H9632.51V24.54Z" fill="black"/>
<path d="M8615.82 24.54V41.21V96.69H8643.76V39.14V24.54V3.33H8615.82V24.54Z" fill="black"/>
<path d="M8571.53 24.54V41.21V96.69H8599.47V39.14V24.54V3.33H8571.53V24.54Z" fill="black"/>
<path d="M9953.66 24.46V3.32001H9880.71H9852.77V70.77H9852.52L9806.04 3.32001H9761.75H9716.95C9691.78 3.32001 9676.8 9.48001 9676.8 35.58V64.42C9676.8 90.52 9691.78 96.68 9716.95 96.68H9764.97H9766.36C9781.02 96.68 9792.9 84.8 9792.9 70.14V28.23H9793.15L9840.63 96.68H9880.7H9953.65V74.78H9880.7V60.18L9953.65 60.22V39.09L9880.7 39.05V24.45H9953.66V24.46ZM9768.51 56.29C9768.51 70.19 9765.89 75.48 9753.38 75.48H9716C9703.49 75.48 9700.86 70.18 9700.86 56.29V43.72C9700.86 31.81 9703.48 24.53 9717.43 24.53H9751.95C9765.89 24.53 9768.52 31.81 9768.52 43.72V56.29H9768.51Z" fill="black"/>
<path d="M9576.01 3.35001H9540.82H9528.46C9519.61 3.35001 9511.82 9.2 9509.36 17.71L9494.88 72.55L9475.72 3.35001H9449.8L9430.65 72.55L9412.02 3.35001H9399.8H9384.7H9293.32V24.56H9332.58V96.71H9360.52V24.56H9392.05L9414.27 96.71H9446.36L9462.76 41.75L9479.16 96.71H9509.44H9511.25H9576.02C9601.19 96.71 9616.16 90.42 9616.16 63.74V36.32C9616.16 9.64001 9601.18 3.35001 9576.01 3.35001ZM9590.68 56.32C9590.68 70.21 9588.07 75.5 9575.6 75.5H9552.71H9552.7H9534.84C9522.37 75.5 9521.94 70.53 9524.71 56.32L9528.22 43.7C9531.43 31.79 9535.51 24.57 9549.41 24.57H9554.13C9554.13 24.57 9554.13 24.57 9554.14 24.57H9574.18C9588.07 24.57 9590.68 31.84 9590.68 43.75V56.32Z" fill="black"/>
<path d="M10512.7 3.39001H10410.3C10409.5 3.36001 10408.8 3.32001 10408 3.32001H10351.6H10323.7V39.13H10264.8V3.32001H10246.1H10236.9H10132.4V24.53H10171.7V96.68H10199.6V24.53H10236.9V96.68H10264.8V60.26H10323.7V96.68H10351.7V60.26H10395.6C10404.3 60.26 10407 63.41 10407 72.97V96.68H10408.5V96.75H10522.6V96.68H10616.4V74.78H10540.7V60.18H10616.4V39.06H10540.7V24.46H10616.4V3.32001H10512.7V3.39001ZM10408.1 32.82C10408.1 37.13 10405.3 39.12 10397.8 39.12H10351.6V24.52H10395.3C10404.1 24.52 10408.1 25.52 10408.1 30.83V32.82ZM10512.7 74.85H10436.4V60.25H10512.7V74.85H10512.7ZM10512.7 39.13H10436.4V24.53H10512.7V39.13H10512.7Z" fill="black"/>
<path d="M10088.1 24.54V41.21V96.69H10116.1V39.14V24.54V3.33H10088.1V24.54Z" fill="black"/>
<path d="M10632.7 24.54V41.21V96.69H10660.7V39.14V24.54V3.33H10632.7V24.54Z" fill="black"/>
<path d="M10677 24.54V41.21V96.69H10705V39.14V24.54V3.33H10677V24.54Z" fill="black"/>
<path d="M11060.5 24.54V41.21V96.69H11088.4V39.14V24.54V3.33H11060.5V24.54Z" fill="black"/>
<path d="M10043.8 24.54V41.21V96.69H10071.8V39.14V24.54V3.33H10043.8V24.54Z" fill="black"/>
<path d="M9999.53 24.54V41.21V96.69H10027.5V39.14V24.54V3.33H9999.53V24.54Z" fill="black"/>
<path d="M11381.7 24.46V3.32001H11308.7H11280.8V70.77H11280.5L11234 3.32001H11189.7H11144.9C11119.8 3.32001 11104.8 9.48001 11104.8 35.58V64.42C11104.8 90.52 11119.8 96.68 11144.9 96.68H11193H11194.4C11209 96.68 11220.9 84.8 11220.9 70.14V28.23H11221.1L11268.6 96.68H11308.7H11381.6V74.78H11308.7V60.18L11381.6 60.22V39.09L11308.7 39.05V24.45H11381.7V24.46ZM11196.5 56.29C11196.5 70.19 11193.9 75.48 11181.4 75.48H11144C11131.5 75.48 11128.9 70.18 11128.9 56.29V43.72C11128.9 31.81 11131.5 24.53 11145.4 24.53H11179.9C11193.9 24.53 11196.5 31.81 11196.5 43.72V56.29H11196.5Z" fill="black"/>
<path d="M11004 3.35001H10968.8H10956.5C10947.6 3.35001 10939.8 9.2 10937.4 17.71L10922.9 72.55L10903.7 3.35001H10877.8L10858.7 72.55L10840 3.35001H10827.8H10812.7H10721.3V24.56H10760.6V96.71H10788.5V24.56H10820.1L10842.3 96.71H10874.4L10890.8 41.75L10907.2 96.71H10937.4H10939.3H11004C11029.2 96.71 11044.2 90.42 11044.2 63.74V36.32C11044.2 9.64001 11029.2 3.35001 11004 3.35001ZM11018.7 56.32C11018.7 70.21 11016.1 75.5 11003.6 75.5H10980.7H10980.7H10962.8C10950.4 75.5 10949.9 70.53 10952.7 56.32L10956.2 43.7C10959.4 31.79 10963.5 24.57 10977.4 24.57H10982.1C10982.1 24.57 10982.1 24.57 10982.1 24.57H11002.2C11016.1 24.57 11018.7 31.84 11018.7 43.75V56.32Z" fill="black"/>
<path d="M11940.7 3.39001H11838.3C11837.5 3.36001 11836.8 3.32001 11836 3.32001H11779.6H11751.7V39.13H11692.8V3.32001H11674.1H11664.9H11560.4V24.53H11599.7V96.68H11627.6V24.53H11664.9V96.68H11692.8V60.26H11751.7V96.68H11779.7V60.26H11823.6C11832.3 60.26 11835 63.41 11835 72.97V96.68H11836.5V96.75H11950.6V96.68H12044.4V74.78H11968.7V60.18H12044.4V39.06H11968.7V24.46H12044.4V3.32001H11940.7V3.39001ZM11836.1 32.82C11836.1 37.13 11833.3 39.12 11825.8 39.12H11779.6V24.52H11823.3C11832.1 24.52 11836.1 25.52 11836.1 30.83V32.82ZM11940.7 74.85H11864.4V60.25H11940.7V74.85H11940.7ZM11940.7 39.13H11864.4V24.53H11940.7V39.13H11940.7Z" fill="black"/>
<path d="M11516.1 24.54V41.21V96.69H11544.1V39.14V24.54V3.33H11516.1V24.54Z" fill="black"/>
<path d="M12060.7 24.54V41.21V96.69H12088.7V39.14V24.54V3.33H12060.7V24.54Z" fill="black"/>
<path d="M12105 24.54V41.21V96.69H12133V39.14V24.54V3.33H12105V24.54Z" fill="black"/>
<path d="M12488.5 24.54V41.21V96.69H12516.4V39.14V24.54V3.33H12488.5V24.54Z" fill="black"/>
<path d="M11471.8 24.54V41.21V96.69H11499.8V39.14V24.54V3.33H11471.8V24.54Z" fill="black"/>
<path d="M11427.5 24.54V41.21V96.69H11455.5V39.14V24.54V3.33H11427.5V24.54Z" fill="black"/>
<path d="M12809.7 24.46V3.32001H12736.7H12708.8V70.77H12708.5L12662 3.32001H12617.7H12572.9C12547.8 3.32001 12532.8 9.48001 12532.8 35.58V64.42C12532.8 90.52 12547.8 96.68 12572.9 96.68H12621H12622.4C12637 96.68 12648.9 84.8 12648.9 70.14V28.23H12649.1L12696.6 96.68H12736.7H12809.6V74.78H12736.7V60.18L12809.6 60.22V39.09L12736.7 39.05V24.45H12809.7V24.46ZM12624.5 56.29C12624.5 70.19 12621.9 75.48 12609.4 75.48H12572C12559.5 75.48 12556.9 70.18 12556.9 56.29V43.72C12556.9 31.81 12559.5 24.53 12573.4 24.53H12607.9C12621.9 24.53 12624.5 31.81 12624.5 43.72V56.29H12624.5Z" fill="black"/>
<path d="M12432 3.35001H12396.8H12384.5C12375.6 3.35001 12367.8 9.2 12365.4 17.71L12350.9 72.55L12331.7 3.35001H12305.8L12286.7 72.55L12268 3.35001H12255.8H12240.7H12149.3V24.56H12188.6V96.71H12216.5V24.56H12248.1L12270.3 96.71H12302.4L12318.8 41.75L12335.2 96.71H12365.4H12367.3H12432C12457.2 96.71 12472.2 90.42 12472.2 63.74V36.32C12472.2 9.64001 12457.2 3.35001 12432 3.35001ZM12446.7 56.32C12446.7 70.21 12444.1 75.5 12431.6 75.5H12408.7H12408.7H12390.8C12378.4 75.5 12377.9 70.53 12380.7 56.32L12384.2 43.7C12387.4 31.79 12391.5 24.57 12405.4 24.57H12410.1C12410.1 24.57 12410.1 24.57 12410.1 24.57H12430.2C12444.1 24.57 12446.7 31.84 12446.7 43.75V56.32Z" fill="black"/>
<path d="M13368.7 3.39001H13266.3C13265.5 3.36001 13264.8 3.32001 13264 3.32001H13207.6H13179.7V39.13H13120.8V3.32001H13102.1H13092.9H12988.4V24.53H13027.7V96.68H13055.6V24.53H13092.9V96.68H13120.8V60.26H13179.7V96.68H13207.7V60.26H13251.6C13260.3 60.26 13263 63.41 13263 72.97V96.68H13264.5V96.75H13378.6V96.68H13472.4V74.78H13396.7V60.18H13472.4V39.06H13396.7V24.46H13472.4V3.32001H13368.7V3.39001ZM13264.1 32.82C13264.1 37.13 13261.3 39.12 13253.8 39.12H13207.6V24.52H13251.3C13260.1 24.52 13264.1 25.52 13264.1 30.83V32.82ZM13368.7 74.85H13292.4V60.25H13368.7V74.85H13368.7ZM13368.7 39.13H13292.4V24.53H13368.7V39.13H13368.7Z" fill="black"/>
<path d="M12944.1 24.54V41.21V96.69H12972.1V39.14V24.54V3.33H12944.1V24.54Z" fill="black"/>
<path d="M13488.7 24.54V41.21V96.69H13516.7V39.14V24.54V3.33H13488.7V24.54Z" fill="black"/>
<path d="M13533 24.54V41.21V96.69H13561V39.14V24.54V3.33H13533V24.54Z" fill="black"/>
<path d="M13916.5 24.54V41.21V96.69H13944.4V39.14V24.54V3.33H13916.5V24.54Z" fill="black"/>
<path d="M12899.8 24.54V41.21V96.69H12927.8V39.14V24.54V3.33H12899.8V24.54Z" fill="black"/>
<path d="M12855.5 24.54V41.21V96.69H12883.5V39.14V24.54V3.33H12855.5V24.54Z" fill="black"/>
<path d="M14237.7 24.46V3.32001H14164.7H14136.8V70.77H14136.5L14090 3.32001H14045.7H14000.9C13975.8 3.32001 13960.8 9.48001 13960.8 35.58V64.42C13960.8 90.52 13975.8 96.68 14000.9 96.68H14049H14050.4C14065 96.68 14076.9 84.8 14076.9 70.14V28.23H14077.1L14124.6 96.68H14164.7H14237.6V74.78H14164.7V60.18L14237.6 60.22V39.09L14164.7 39.05V24.45H14237.7V24.46ZM14052.5 56.29C14052.5 70.19 14049.9 75.48 14037.4 75.48H14000C13987.5 75.48 13984.9 70.18 13984.9 56.29V43.72C13984.9 31.81 13987.5 24.53 14001.4 24.53H14035.9C14049.9 24.53 14052.5 31.81 14052.5 43.72V56.29H14052.5Z" fill="black"/>
<path d="M13860 3.35001H13824.8H13812.5C13803.6 3.35001 13795.8 9.2 13793.4 17.71L13778.9 72.55L13759.7 3.35001H13733.8L13714.7 72.55L13696 3.35001H13683.8H13668.7H13577.3V24.56H13616.6V96.71H13644.5V24.56H13676.1L13698.3 96.71H13730.4L13746.8 41.75L13763.2 96.71H13793.4H13795.3H13860C13885.2 96.71 13900.2 90.42 13900.2 63.74V36.32C13900.2 9.64001 13885.2 3.35001 13860 3.35001ZM13874.7 56.32C13874.7 70.21 13872.1 75.5 13859.6 75.5H13836.7H13836.7H13818.8C13806.4 75.5 13805.9 70.53 13808.7 56.32L13812.2 43.7C13815.4 31.79 13819.5 24.57 13833.4 24.57H13838.1C13838.1 24.57 13838.1 24.57 13838.1 24.57H13858.2C13872.1 24.57 13874.7 31.84 13874.7 43.75V56.32Z" fill="black"/>
</svg>
